/* XPM */
static char *_1be3685c3f34346b354d71b4ccc9347J5ewg0QszuX511T0[] = {
/* columns rows colors chars-per-pixel */
"35 50 232 2 ",
"   c #040203",
".  c #0C0403",
"X  c #0D0805",
"o  c #03030C",
"O  c #0B060B",
"+  c #0C0A0C",
"@  c #070A0A",
"#  c #140604",
"$  c #150906",
"%  c #140B0B",
"&  c #1C0E0B",
"*  c #1B0700",
"=  c #1B110C",
"-  c #18110A",
";  c #0D0C15",
":  c #0A0914",
">  c #130E14",
",  c #120F1A",
"<  c #190F18",
"1  c #0D131A",
"2  c #131215",
"3  c #1A1314",
"4  c #13131C",
"5  c #1B191D",
"6  c #17181C",
"7  c #230908",
"8  c #29120C",
"9  c #241513",
"0  c #2C1A14",
"q  c #271B19",
"w  c #391C15",
"e  c #38241C",
"r  c #141520",
"t  c #141B23",
"y  c #1C1C25",
"u  c #1D1D2A",
"i  c #161927",
"p  c #221F2A",
"a  c #211E22",
"s  c #211F35",
"d  c #1C222B",
"f  c #1A2127",
"g  c #1C2433",
"h  c #232126",
"j  c #23232D",
"k  c #28262C",
"l  c #362827",
"z  c #232433",
"x  c #2B2B34",
"c  c #242B3B",
"v  c #2B2B3A",
"b  c #262634",
"n  c #362C34",
"m  c #243233",
"M  c #2C343A",
"N  c #2E3A3D",
"B  c #35353D",
"V  c #38363A",
"C  c #431B18",
"Z  c #44281D",
"A  c #442C23",
"S  c #482B27",
"D  c #562D27",
"F  c #4C322A",
"G  c #51322A",
"H  c #463736",
"J  c #553D38",
"K  c #583936",
"L  c #432F31",
"P  c #613B37",
"I  c #60302E",
"U  c #5D423B",
"Y  c #68433C",
"T  c #71413D",
"R  c #182F44",
"E  c #2F2E42",
"W  c #2B3844",
"Q  c #343441",
"!  c #393742",
"~  c #353A42",
"^  c #3A3B45",
"/  c #3D3F49",
"(  c #533F40",
")  c #34444D",
"_  c #3E414B",
"`  c #38474A",
"'  c #3A4C55",
"]  c #394955",
"[  c #3E555B",
"{  c #2B4158",
"}  c #41444E",
"|  c #44484F",
" . c #474248",
".. c #594844",
"X. c #434651",
"o. c #454953",
"O. c #4A4D54",
"+. c #474D59",
"@. c #4A4E59",
"#. c #5B4E56",
"$. c #42535D",
"%. c #4A525C",
"&. c #4C525C",
"*. c #485A5E",
"=. c #51535C",
"-. c #5E504D",
";. c #694B46",
":. c #744943",
">. c #6C524C",
",. c #74514E",
"<. c #785956",
"1. c #685456",
"2. c #4C5660",
"3. c #445C63",
"4. c #4B5A63",
"5. c #4C5C6B",
"6. c #435867",
"7. c #525661",
"8. c #545A65",
"9. c #545E6A",
"0. c #595D6B",
"q. c #4E5A70",
"w. c #715A61",
"e. c #4D646C",
"r. c #466469",
"t. c #546166",
"y. c #53636D",
"u. c #5A636C",
"i. c #56696D",
"p. c #4C6A75",
"a. c #546473",
"s. c #596473",
"d. c #556A74",
"f. c #5A6C74",
"g. c #546B7A",
"h. c #54697D",
"j. c #4F7179",
"k. c #53727C",
"l. c #5C767F",
"z. c #5C726F",
"x. c #7B6566",
"c. c #616D76",
"v. c #65777D",
"b. c #6C6E75",
"n. c #865C56",
"m. c #80514B",
"M. c #88645C",
"N. c #82645D",
"B. c #9A675F",
"V. c #8A6A64",
"C. c #966C67",
"Z. c #8B746E",
"A. c #93736A",
"S. c #9C736C",
"D. c #8B7574",
"F. c #887977",
"G. c #9B7772",
"H. c #987976",
"J. c #836D70",
"K. c #A2746D",
"L. c #A47A74",
"P. c #A77877",
"I. c #AE7779",
"U. c #9E8079",
"Y. c #A3817C",
"T. c #AB837C",
"R. c #B5887D",
"E. c #5A6D83",
"W. c #5A7485",
"Q. c #5B758B",
"!. c #5B798E",
"~. c #577887",
"^. c #5A7D92",
"/. c #567F91",
"(. c #637584",
"). c #657A88",
"_. c #757F89",
"`. c #568394",
"'. c #5B8395",
"]. c #5B859A",
"[. c #5C899D",
"{. c #56859C",
"}. c #58929F",
"|. c #79878B",
" X c #658798",
".X c #6E9299",
"XX c #718792",
"oX c #5E8CA3",
"OX c #598AA2",
"+X c #5E91A3",
"@X c #5A91A5",
"#X c #618CA2",
"$X c #6A8EA2",
"%X c #6493A2",
"&X c #6B96A4",
"*X c #7997A9",
"=X c #9A8681",
"-X c #8B8C92",
";X c #AA8582",
":X c #AA8B83",
">X c #A68A86",
",X c #B58D8A",
"<X c #B68A87",
"1X c #AF928A",
"2X c #BA938C",
"3X c #B9918B",
"4X c #BC9493",
"5X c #BA9895",
"6X c #A79291",
"7X c #B1A096",
"8X c #C4948B",
"9X c #C39693",
"0X c #C39A93",
"qX c #CA9C99",
"wX c #CA9A96",
"eX c #D29C99",
"rX c #C4A39C",
"tX c #CCA29B",
"yX c #C9A89F",
"uX c #D2A39C",
"iX c #CD9FA1",
"pX c #CCA6A4",
"aX c #D3A6A3",
"sX c #D4AAA4",
"dX c #DAABA5",
"fX c #D4ACAA",
"gX c #DCAEAB",
"hX c #D7B3AD",
"jX c #DCB5B4",
"kX c #E1B2AF",
"lX c #E4B5B2",
"zX c #E9BBB9",
/* pixels */
"Q Q ~ ~ ~ ~ ~ ~ ^ ^ ^ ^ ^ ^ ^ ^ ^ ^ ^ ! ! ! ! ! B B B B B B B B B B B ",
"~ ~ ~ ~ ~ ^ ^ ^ ^ ^ ^ ^ ^ ^ ^ ^ ^ ^ ^ ^ ^ ^ ! ! ^ ^ B B B B B B V B B ",
"~ ~ ^ ^ ^ ^ ^ ^ ^ ^ ^ ^ ^ ^ ^ ^ / / / / / ^ ^ ^ ^ ^ ^ ^ ^ ! B B B B B ",
"^ ^ ^ ^ / / / / _ _ _ _ _ _ _ _ / / / / / / / / / ^ ^ ^ ^ ^ ^ ^ B B B ",
"^ ^ / / _ _ _ _ _ _ _ _ _ _ _ _ _ _ _ _ _ / / / / / / / ^ ^ ^ ^ ^ ^ B ",
"/ _ _ _ _ } } } } } } } } } } } } } } } } _ _ _ _ _ / / / / / ^ ^ ^ ^ ",
"_ _ } } } X.X.X.X.X.} } } } } } } } } } } } } } } } } _ / / / / / ^ ^ ",
"} } } X.X.X.X.X.o.o.o.o.o.| | | | o.o.o.X.} } } } } } } _ / ( / / / / ",
"X.X.X.X.X.o.o.o.o.o.+.O.o.O.O.O.O.o.o.+.o.o.+.} } o.} _ X.} / } _ _ / ",
"X.X.o.o.o.o.o.+.+.+.O.O.O. .^ V V k x n ^  . .O.o.} @.} X.o.o.} } _ _ ",
"o.o.+.+.+.+.+.@.&.&.|  .n 2 + + + + 2 o 2 k k V O.| o.o.o._ o.X.} } } ",
"o.+.@.@.+.@.%.%.=.B f y 2 + O X 3 3 5 % + > > h  .=.o.+.@.X.o.o.o.| } ",
"+.%.%.%.%.%.&.&.&.y 2 2 % 3 % # $ X X $ % 2 3 2 h  .=.+.+.+.@.X.o.X.X.",
"+.%.%.%.%.2.7.=.B ; 2 3 % q = & $ $ # . . 3 a >   > O.&.+.+.%.o.o.o.o.",
"%.*.2.*.2.8.7.&.B 2 > % & q 9 9 & & = $ . . X 2     x 7.=.%.%.&.@.+.o.",
"*.2.4.2.4.8.2.+.5 5 9 9 9 9 0 e J ;.>.H e 0 # $ X   @ &.%.*.%.%.@.@.+.",
"2.2.4.5.5.5.a.N 5 9 e S 8 8 w Y A.Y.<XT.G.M.;.w - +   | t.%.2.7.&.&.@.",
"4.2.8.9.5.5.a.M q 0 S V.G.V.L.0XtX0X8X8XR.K.M.U - .   M t.4.7.=.&.&.&.",
"5.5.0.0.a.a.s.x # J A.5XfXhXlXdXsXuXeXwX8XL.C.<.0 X + 5 8.8.8.7.7.7.&.",
"9.9.0.0.a.s.s.k & >.5XrXpXjXlXzXlXdXeX8X8XT.C.,.e $ O ; 7.8.0.8.8.7.7.",
"9.u.u.9.s.s.u.a 7 ,.5XtXfXhXgXlXgXaXuXeX0XT.C.;.0 $ . , u.0.0.8.8.7.7.",
"9.a.a.a.f.s.0.5 7 N.2X0XfXjXzXgXlXgXdXqX3XG.V.>.9 $   4 u.0.u.0.8.8.7.",
"a.a.d.d.g.d.u.h = N.5XrXpXfXjXjXfXsXaX0X1XU.V.;.9 $   4 u.u.y.u.8.8.8.",
"h.g.d.a.g.g.f.x $ U A.M.<.<.N.;XqX4XL.Y Z e A 0 &     4 u.d.y.e.9.8.8.",
"h.h.g.g.k.g.v.B $ Y n.:.K C S C.pX2X:.w F S G F 9     4 f.y.d.y.y.0.8.",
"h.h.g.g.k.W.(._ # Z.3Xn.P P V.2XjX,X;.n.N.S F J n .   4 u.f.y.y.y.0.8.",
"h.E.E.h.E.W.(.u.q 1X4XS.,X4X3XpXpXL.,.P.2XG.P >...X   ; u.f.y.a.u.0.8.",
"E.E.E.W.W.W.(.-X1.;XsXdXaXaXgXqXfX4XT K.9X,X<XH...% O 4 c.u.d.y.y.8.8.",
"E.E.E.W.Q.W.(.-XF.U.aXgXkXlXdX9XaXG.D C.uXtX3XC.( %   M v.y.f.y.y.5.4.",
"E.Q.W.Q.!.!.W._.=XH.tXgXkXlXaX8XfX,XT n.dXqX<XV.L X   +.v.f.d.y.9.4.2.",
"W.Q.W.~./.'.!.).6XD.4XaXgXdXtXL.yX;XD D 2XtX<X,.q + j i.f.f.a.y.3.2.$.",
"Q.Q.~.^././.'.).|.x.>XtXdXdXuXL.A.G 7 C S.0XT.J 3 2 t.v.i.d.e.y.4.$.$.",
"Q.!.^.^.^.'.'.'.XXu.J.qXuX8X3X3X2XL.m.T n.n.Y.L + 8.).g.l.d.y.5.4.$.[ ",
").!.^.^.'.'.'.]. X).#.1XR.B.T.8X<X<XS.m.I P D.l @ y.W.k.p.d.y.5.6.[ ' ",
").^.`.`.'.'.[.[. XXXO.x.:XT.L.S.K.C.B.:.T ;XD.- 6 v.W.j.k.g.3.3.6.[ ] ",
"^.^.'.{.].].[.[.#X.X4.V 7XhXaXqXeX9XR.K.G.:X..  N v.k.k.k.r.r.3.$.] ) ",
"^.'.].].[.[.#X#XoX X.Xm F.yXpXiX9XI.<X<XC.<.l   ` |.'.j.j.p.r.[ [ ] ) ",
"`.'.]. XOXoX#X#XoX%X.Xz.l H.pXjXfX4X0XY.Z....   m t.e.l.k.r.r.[ [ ] ) ",
"`.{.[.oXOXoXoX+X+X%X.X-X-.Z :X5XpXrX>XJ...= . + 6 o t f.f.3.r.3.' ) W ",
"`.{.OXoXoX+X+X+X%X&XXXb.6XK G A.Y.=XZ.H - . . O O : o d c.f.3.[ ' ) W ",
"].OXOX@X@X}.+X&X*X*X_ #.5XG.G e A e l . . . . O O O ; o d ` 2.*.' ) W ",
"^.{.oX@X@X}.&X~.6.6.u 1.5X,XC.;.A * # & . X   . + O ; o , t b ~ ` ) W ",
" X#XoXOX+X%XW.W c E z  .5X4XL.S.A.;.w & $ X O ; + 4 ; : j j 4 1 f m ) ",
"{.OX{.#X%Xp.g c v E Q k F.5X,XL.P.V.<.K q q a 4 4 4 4 y d 4 , y t f M ",
"].{.oX#X{ g z x v z E v n D.4X<XI.;XH.x.L  .n f t t d d ; ; y k y d ~ ",
"'.'.{.$Xq.v n b g c z v k 3 D.2X;X;XH.x.-.#.h 5 t b d 1 r j p 4 o d _ ",
" X$X#X!.) z x x v z s v v h k F.1XG.A.x.;.n 5 > j d 1 1 j 4 , 4 : r d ",
"(.6.R R i b 4 x v E E b Q r y h 1.=XH.1.l l < > j : 4 b j 4 j 4 u y t ",
"z i i g v v b z v v z z Q r y y > H #.V p k r o , u j j y 4 4 4 u u u ",
"u u u u z Q v z v Q v z v r j b r p x b b p , o p j y 4 > 4 y k u u u "
};
