/* XPM */
static char *_3c10c3a9da443d7b632ff1571a7603fW6ahpdtG1Lpgbw98[] = {
/* columns rows colors chars-per-pixel */
"33 100 37 1 ",
"  c #47704C",
". c #8CFF92",
"X c #93FF98",
"o c #A1FFA3",
"O c #99FF9D",
"+ c #B6FEB7",
"@ c #93FF97",
"# c None",
"$ c #94FF99",
"% c #6AFF77",
"& c #89FF90",
"* c #7BFE84",
"= c #9CFFA2",
"- c #91FF96",
"; c #87FF8F",
": c #89FF8F",
"> c #A9FFB2",
", c #A2FFAB",
"< c #9BFFA5",
"1 c #95FFA1",
"2 c #5CFF6C",
"3 c #8EFF9B",
"4 c #AFFFB9",
"5 c #B6FFBF",
"6 c #65FF74",
"7 c #6DFF7C",
"8 c #E0FFE4",
"9 c #53FF63",
"0 c #78FF88",
"q c #83FF92",
"w c #C2FFCA",
"e c #BCFFC4",
"r c #CFFFD4",
"t c #D4FFD9",
"y c #DBFFDF",
"u c #C9FFCF",
"i c #E9FFEC",
/* pixels */
"                                 ",
"                                 ",
"                                 ",
"                                 ",
"                                 ",
"                                 ",
"                                 ",
"                                 ",
"              o$-@+              ",
"             O=54<;o             ",
"            o=etu4q&+            ",
"            @>t8t53#O            ",
"            ->8i8w17@            ",
"            .>8i8w<7$            ",
"            .>8i8w<7X            ",
"            .>8i8w<7X            ",
"            .>8i8w<7X            ",
"            .>8i8w<7X            ",
"            .>8i8e17X            ",
"            .>8iye17X            ",
"            .>8iye17X            ",
"            .>88ye17X            ",
"            .>y8ye17X            ",
"            .>y8ye17X            ",
"            .>y8t517X            ",
"            .>y8t537X            ",
"            .>y8t537X            ",
"            .>y8t537X            ",
"            .>y8t536X            ",
"            .>yyr536X            ",
"            .>yyr536X            ",
"            .>yyr436X            ",
"            .>yyr436X            ",
"            .>tyr436X            ",
"            .>tyu436X            ",
"            .>ttu4q6X            ",
"            .>ttu4q6X            ",
"            .>ttu>q6X            ",
"            .>ttu>q6X            ",
"            .>ttu>q6X            ",
"            .>trw>q6X            ",
"            .,trw>q6X            ",
"            .,trw>q6X            ",
"            .,rrw>q6X            ",
"            .,rrw,q6X            ",
"            .,rre,q6X            ",
"            .,rue,q6X            ",
"            .,rue,q2X            ",
"            .,rue,02X            ",
"            .,rue,02X            ",
"            .,ru5,02X            ",
"            .,uw5<02X            ",
"            .,uw5<02X            ",
"            .,uw5<02X            ",
"            .,uw5<02X            ",
"            .,uw5<02X            ",
"            .,ue4<02X            ",
"            .,ue4102X            ",
"            .,ue4102X            ",
"            .,we4102X            ",
"            .<we4102X            ",
"            .<we4172X            ",
"            .<w5>172X            ",
"            .<w5>372X            ",
"            .<w5>372X            ",
"            .<e5>372X            ",
"            .<e5>372X            ",
"            .<e5>372X            ",
"            .<e4,372X            ",
"            .<e4,379X            ",
"            .<e4,379X            ",
"            .<e4,379X            ",
"            .<54,q79X            ",
"            .<54,q69X            ",
"            .<5>,q69X            ",
"            .15><q69X            ",
"            .15><q69X            ",
"            .15><q69X            ",
"            .15><q69X            ",
"            .14,<q69X            ",
"            .14,1q69X            ",
"            .14,1q69X            ",
"            .14,1069X            ",
"            .14,1029X            ",
"            .14,1029X            ",
"            .1>,3029X            ",
"            .1><3029X            ",
"            .3><3029X            ",
"            .3><3029X            ",
"            :3><3029X            ",
"            $1><3029@            ",
"            O<,1302%o            ",
"            +&11302*             ",
"             o.##%*+             ",
"               oOo               ",
"                                 ",
"                                 ",
"                                 ",
"                                 ",
"                                 "
};
